HIERARCHY
ROOT hip
{
  OFFSET 0 0 0
  CHANNELS 6 Xposition Yposition Zposition Zrotation Yrotation Xrotation
  JOINT abdomen
  {
    OFFSET 0 20.6881 -0.73152
    CHANNELS 3 Zrotation Xrotation Yrotation
    JOINT chest
    {
      OFFSET 0 11.7043 -0.48768
      CHANNELS 3 Zrotation Xrotation Yrotation
      JOINT neck
      {
        OFFSET 0 22.1894 -2.19456
        CHANNELS 3 Zrotation Xrotation Yrotation
        JOINT head
        {
          OFFSET -0.24384 7.07133 1.2192
          CHANNELS 3 Zrotation Xrotation Yrotation
          JOINT leftEye
          {
            OFFSET 4.14528 8.04674 8.04672
            CHANNELS 3 Zrotation Xrotation Yrotation
            End Site
            {
              OFFSET 1 0 0
            }
          }
          JOINT rightEye
          {
            OFFSET -3.6576 8.04674 8.04672
            CHANNELS 3 Zrotation Xrotation Yrotation
            End Site
            {
              OFFSET 1 0 0
            }
          }
        }
      }
      JOINT rCollar
      {
        OFFSET -2.68224 19.2634 -4.8768
        CHANNELS 3 Zrotation Xrotation Yrotation
        JOINT rShldr
        {
          OFFSET -8.77824 -1.95073 1.46304
          CHANNELS 3 Zrotation Xrotation Yrotation
          JOINT rForeArm
          {
            OFFSET -28.1742 -1.7115 0.48768
            CHANNELS 3 Zrotation Xrotation Yrotation
            JOINT rHand
            {
              OFFSET -22.5879 0.773209 7.07136
              CHANNELS 3 Zrotation Xrotation Yrotation
              JOINT rThumb1
              {
                OFFSET -1.2192 -0.487915 3.41376
                CHANNELS 3 Zrotation Xrotation Yrotation
                JOINT rThumb2
                {
                  OFFSET -3.37035 -0.52449 3.41376
                  CHANNELS 3 Zrotation Xrotation Yrotation
                  End Site
                  {
                    OFFSET -1.78271 -1.18214 1.43049
                  }
                }
              }
              JOINT rIndex1
              {
                OFFSET -7.75947 0.938293 5.60832
                CHANNELS 3 Zrotation Xrotation Yrotation
                JOINT rIndex2
                {
                  OFFSET -2.54057 -0.884171 1.56538
                  CHANNELS 3 Zrotation Xrotation Yrotation
                  End Site
                  {
                    OFFSET -1.62519 -0.234802 1.16502
                  }
                }
              }
              JOINT rMid1
              {
                OFFSET -8.24714 1.18213 3.41376
                CHANNELS 3 Zrotation Xrotation Yrotation
                JOINT rMid2
                {
                  OFFSET -3.10165 -0.590103 1.0647
                  CHANNELS 3 Zrotation Xrotation Yrotation
                  End Site
                  {
                    OFFSET -2.48547 -0.328903 0.83742
                  }
                }
              }
              JOINT rRing1
              {
                OFFSET -8.82822 0.546677 1.51678
                CHANNELS 3 Zrotation Xrotation Yrotation
                JOINT rRing2
                {
                  OFFSET -2.60934 -0.819778 -0.0198488
                  CHANNELS 3 Zrotation Xrotation Yrotation
                  End Site
                  {
                    OFFSET -2.33842 -0.294052 0.168128
                  }
                }
              }
              JOINT rPinky1
              {
                OFFSET -8.27202 -0.0477905 -0.4584
                CHANNELS 3 Zrotation Xrotation Yrotation
                JOINT rPinky2
                {
                  OFFSET -1.82734 -0.647385 -0.700984
                  CHANNELS 3 Zrotation Xrotation Yrotation
                  End Site
                  {
                    OFFSET -1.69225 -0.51767 -0.607171
                  }
                }
              }
            }
          }
        }
      }
      JOINT lCollar
      {
        OFFSET 2.68224 19.2634 -4.8768
        CHANNELS 3 Zrotation Xrotation Yrotation
        JOINT lShldr
        {
          OFFSET 8.77824 -1.95073 1.46304
          CHANNELS 3 Zrotation Xrotation Yrotation
          JOINT lForeArm
          {
            OFFSET 28.1742 -1.7115 0.48768
            CHANNELS 3 Zrotation Xrotation Yrotation
            JOINT lHand
            {
              OFFSET 22.5879 0.773209 7.07136
              CHANNELS 3 Zrotation Xrotation Yrotation
              JOINT lThumb1
              {
                OFFSET 1.2192 -0.487915 3.41376
                CHANNELS 3 Zrotation Xrotation Yrotation
                JOINT lThumb2
                {
                  OFFSET 3.37035 -0.52449 3.41376
                  CHANNELS 3 Zrotation Xrotation Yrotation
                  End Site
                  {
                    OFFSET 1.78271 -1.18214 1.43049
                  }
                }
              }
              JOINT lIndex1
              {
                OFFSET 7.75947 0.938293 5.60832
                CHANNELS 3 Zrotation Xrotation Yrotation
                JOINT lIndex2
                {
                  OFFSET 2.54057 -0.884171 1.56538
                  CHANNELS 3 Zrotation Xrotation Yrotation
                  End Site
                  {
                    OFFSET 1.62519 -0.234802 1.16502
                  }
                }
              }
              JOINT lMid1
              {
                OFFSET 8.24714 1.18213 3.41376
                CHANNELS 3 Zrotation Xrotation Yrotation
                JOINT lMid2
                {
                  OFFSET 3.10165 -0.590103 1.0647
                  CHANNELS 3 Zrotation Xrotation Yrotation
                  End Site
                  {
                    OFFSET 2.48547 -0.328903 0.83742
                  }
                }
              }
              JOINT lRing1
              {
                OFFSET 8.82822 0.546677 1.51678
                CHANNELS 3 Zrotation Xrotation Yrotation
                JOINT lRing2
                {
                  OFFSET 2.60934 -0.819778 -0.0198488
                  CHANNELS 3 Zrotation Xrotation Yrotation
                  End Site
                  {
                    OFFSET 2.33842 -0.294052 0.168128
                  }
                }
              }
              JOINT lPinky1
              {
                OFFSET 8.27202 -0.0477905 -0.4584
                CHANNELS 3 Zrotation Xrotation Yrotation
                JOINT lPinky2
                {
                  OFFSET 1.82734 -0.647385 -0.700984
                  CHANNELS 3 Zrotation Xrotation Yrotation
                  End Site
                  {
                    OFFSET 1.69225 -0.51767 -0.607171
                  }
                }
              }
            }
          }
        }
      }
    }
  }
  JOINT rButtock
  {
    OFFSET -8.77824 4.35084 1.2192
    CHANNELS 3 Zrotation Xrotation Yrotation
    JOINT rThigh
    {
      OFFSET 0 -1.70687 -2.19456
      CHANNELS 3 Zrotation Xrotation Yrotation
      JOINT rShin
      {
        OFFSET 0 -36.8199 0.73152
        CHANNELS 3 Zrotation Xrotation Yrotation
        JOINT rFoot
        {
          OFFSET 0.73152 -45.1104 -5.12064
          CHANNELS 3 Zrotation Xrotation Yrotation
          End Site
          {
            OFFSET -1.1221 -3.69964 12.103
          }
        }
      }
    }
  }
  JOINT lButtock
  {
    OFFSET 8.77824 4.35084 1.2192
    CHANNELS 3 Zrotation Xrotation Yrotation
    JOINT lThigh
    {
      OFFSET 0 -1.70687 -2.19456
      CHANNELS 3 Zrotation Xrotation Yrotation
      JOINT lShin
      {
        OFFSET 0 -36.8199 0.73152
        CHANNELS 3 Zrotation Xrotation Yrotation
        JOINT lFoot
        {
          OFFSET -0.73152 -45.1104 -5.12064
          CHANNELS 3 Zrotation Xrotation Yrotation
          End Site
          {
            OFFSET 1.1221 -3.69964 12.103
          }
        }
      }
    }
  }
}
MOTION
Frames:	5
Frame Time:	0.03333
0.0 0.0 0.0 0.0 0.0 0.0 0.0 0.0 0.0 0.0 0.0 0.0 0.0 0.0 0.0 0.0 0.0 0.0 0.0 0.0 0.0 0.0 0.0 0.0 0.0 0.0 0.0 0.0 0.0 0.0 0.0 0.0 0.0 0.0 0.0 0.0 0.0 0.0 0.0 0.0 0.0 0.0 0.0 0.0 0.0 0.0 0.0 0.0 0.0 0.0 0.0 0.0 0.0 0.0 0.0 0.0 0.0 0.0 0.0 0.0 0.0 0.0 0.0 0.0 0.0 0.0 0.0 0.0 0.0 0.0 0.0 0.0 0.0 0.0 0.0 0.0 0.0 0.0 0.0 0.0 0.0 0.0 0.0 0.0 0.0 0.0 0.0 0.0 0.0 0.0 0.0 0.0 0.0 0.0 0.0 0.0 0.0 0.0 0.0 0.0 0.0 0.0 0.0 0.0 0.0 0.0 0.0 0.0 0.0 0.0 0.0 0.0 0.0 0.0 0.0 0.0 0.0 0.0 0.0 0.0 0.0 0.0 0.0 0.0 0.0 0.0 0.0 0.0 0.0 0.0 0.0 0.0
0.0898 64.4217 -0.15280000000000002 0.708264 66.750502 -0.021192 3.023484 1.036181 -87.355539 -9.504486 -9.797143 119.775716 -9.729505 -14.275477 -52.983008 -14.282474 -31.511614 -27.217718 -139.767962 18.224746 47.29934 47.455005 -22.073277 -47.857918 -12.442255 55.650938 94.59744 -156.25927 -14.530687 171.435893 77.727664 -31.885553 -95.425045 78.577513 29.624247 -118.920879 177.03164 -2.661853 56.365805 25.010982 33.601077 -144.581729 -17.50908 10.774976 -121.184539 -74.447345 42.859599 -105.352885 -126.425135 9.226079 -73.093156 -58.576725 -67.167699 -125.50192 -13.241301 17.226878 -61.511435 -60.241138 -37.531932 -116.690946 -90.74941 16.39773 -74.002989 -38.983118 -9.558787 1.777607 76.521645 -56.232578 -177.965775 -5.040167 44.942287 -13.165453 118.934886 -82.738563 -41.968703 -160.053686 -7.68068 -74.579498 -10.051847 -21.358062 -48.626264 46.166842 -46.828168 64.927256 160.711029 -34.071232 -39.838978 -151.241035 -36.448845 115.257691 32.779244 63.119665 100.611578 170.565654 15.778318 -64.830359 -171.071549 22.592427 84.099431 -43.061318 -6.620675 -50.549998 -90.186009 7.954362 56.444714 -4.149039 48.784843 2.634794 -2.225396 -56.112565 -0.0 4.796869 57.955588 -0.0 -6.909651 -0.367482 -81.782179 73.64267 0.515534 -85.86292 -58.280897 -9.642593 -80.020132 2.523046 59.203852 -0.0 8.673706 0.649637 95.555777 63.928487 61.17826 -74.322749
-0.2035 61.4827 -1.0669 -0.454252 -38.586956 5.13432 -10.655562 10.776967 -180.0 -10.751341 4.185786 171.851863 -15.784208 18.254669 -77.901157 37.283401 4.377415 52.244121 16.788084 4.814785 31.805633 45.856722 1.446555 3.41892 3.311338 0.912555 12.574073 66.561444 13.518619 2.033716 74.925697 -3.751718 87.576057 -36.971836 38.950346 25.519094 165.754686 -69.648757 79.600747 -95.228548 23.226469 23.862306 38.797104 10.343434 -43.921935 -151.100446 14.735768 57.720216 -71.87203 -72.295056 -106.067835 -37.336998 53.118641 33.144439 -139.746854 66.619917 171.392074 -62.249911 -37.635413 -115.132517 -63.400814 -8.308721 -40.677842 17.250493 7.508058 34.157257 161.579806 -3.06573 -163.273063 51.409581 -2.700837 31.892202 -4.469734 11.637741 104.671177 -162.425148 -24.797385 -144.104511 178.51527 -3.404566 -87.11281 35.308776 -51.160042 -1.90533 10.536822 -28.223848 19.577232 107.398248 -24.705282 -114.760082 48.769974 52.220633 -22.39588 14.15957 15.13866 -38.721469 -12.572263 43.772613 13.726704 -161.518018 -38.190326 174.52752 14.713249 -43.482095 13.427656 2.290856 18.866947 7.110137 -31.963746 4.899108 -15.412765 18.560938 -57.068355 15.939187 50.522557 55.361752 25.691768 -150.453871 -1.587089 96.109979 -9.036286 -4.317243 -0.0 35.421756 -14.012069 -180.0 29.573972 -49.478354 -155.987479 -160.803239 -27.423966 -30.220703
-1.1146 63.6346 -1.7842 -2.072167 -17.297038 3.469289 -5.448862 21.26892 180.0 -5.282775 9.996676 178.292664 -3.381486 22.193815 -106.518191 36.71739 6.62214 56.919513 -167.267965 8.257083 65.803904 144.411654 21.277795 -60.679296 6.373318 0.574984 4.603411 -98.361927 -12.675708 -179.599692 9.452298 -42.71707 -103.355511 -167.045218 34.160245 148.047715 -97.019515 26.830186 48.476638 -62.30237 -56.262618 132.170728 -15.918937 -8.284974 -78.392843 63.996922 32.004679 1.488656 169.526936 -1.987327 -146.483741 -97.693401 -46.743038 -97.716951 -4.086936 3.900178 -28.85104 -14.642693 29.250812 -15.614667 176.91065 -28.065336 -78.014466 -145.520172 2.181767 -42.798339 169.426584 -11.08633 -144.475961 -125.864805 10.405143 138.840943 164.786099 -22.394164 -78.43098 -146.025575 -42.127693 -138.100311 166.783753 18.362645 -100.488589 121.010388 23.54127 -15.57086 105.817808 62.312332 -63.252522 163.237465 26.007972 -46.741128 34.953825 58.102368 -10.646905 160.974231 30.61241 -116.587842 144.357524 -22.096244 164.422492 -2.382926 29.166815 -13.238393 144.394482 4.768529 148.937078 161.578552 -5.75588 -163.321511 1.324769 -10.476069 -1.434497 -56.600629 -49.334712 -159.123912 -75.283981 -36.95885 20.427591 23.323472 53.264674 55.209895 -93.753308 66.101944 -48.913526 174.863702 68.240318 9.174593 -3.11752 63.08284 -106.455637 -94.848484 81.376127 -170.562423
-2.1478 61.606899999999996 -1.9649 -1.744889 -16.878897 6.86713 -5.257132 22.793646 1.839172 2.974702 -14.145022 -3.28939 -11.776384 14.790132 -95.048673 30.190445 9.712671 55.63062 -174.423337 2.857549 54.235194 -25.310856 14.255995 -58.228877 -138.339754 24.292587 161.044015 104.104056 -44.406149 129.238765 -17.79026 -66.437207 69.995118 3.5488 -40.680556 -13.1574 90.736758 -35.124861 51.333653 -47.159671 58.479567 -30.725951 -171.479817 -14.470512 88.81462 141.915102 7.179198 107.667349 -141.651591 9.752401 82.561637 -158.777228 -36.949566 81.558496 -75.986175 71.420192 90.466175 20.21864 1.463685 7.340546 -13.61225 62.988467 -59.720326 5.922325 -2.025504 109.754821 -17.128641 -48.910718 -16.813073 -83.539353 8.388212 7.464395 -49.524293 42.472917 -42.341756 20.506603 63.470355 -12.538115 178.125191 -25.887838 -103.775235 -89.493823 -84.142924 -50.479874 164.352122 57.756744 -101.951939 -23.657332 -0.915842 -57.764776 27.837421 4.730174 22.124606 139.903196 -29.922023 -120.063581 12.254395 0.17158 13.88963 -22.777733 26.809934 -1.604 135.6086 79.779015 175.175245 -62.544379 -49.267895 -1.281387 167.326956 80.947732 12.827618 150.460795 2.264696 -0.0 -62.493306 70.472441 -38.956601 3.969931 2.230772 104.856343 10.53444 -7.350768 -0.0 29.498126 -1.583516 -85.537945 -71.672273 -6.896305 -96.259248 -33.186763 18.543283 -164.684133
